<svg width="50" height="51" viewBox="0 0 50 51" fill="none" xmlns="http://www.w3.org/2000/svg">
<path d="M49.2524 31.6691C45.9128 45.3301 32.3463 53.6427 18.9502 50.2368C5.56024 46.8308 -2.59164 32.9946 0.748559 19.3343C4.08672 5.67183 17.6532 -2.6428 31.0453 0.763108C44.44 4.16902 52.5919 18.0073 49.2524 31.6691Z" fill="#F79430"/>
<path d="M30.6043 21.8175C29.8302 24.9776 25.0565 23.3716 23.507 22.9782L24.8732 17.3922C26.4221 17.7856 31.4103 18.5204 30.6043 21.8175ZM29.7562 30.8316C28.908 34.3054 23.1729 32.4286 21.3123 31.9563L22.8191 25.7976C24.6783 26.2706 30.6403 27.2083 29.7562 30.8316ZM36.025 21.8674C36.5221 18.4746 33.9886 16.6505 30.5248 15.4337L31.6486 10.8373L28.9046 10.1399L27.8107 14.6151C27.0902 14.4316 26.3494 14.2592 25.6133 14.0874L26.7154 9.58313L23.9735 8.88574L22.849 13.48C22.2521 13.3415 21.6661 13.2044 21.0977 13.0604L21.1004 13.0458L17.3175 12.0825L16.5875 15.0708L18.5798 15.5764C19.6908 15.8589 19.8924 16.6089 19.8585 17.2031L18.5744 22.4595L16.7797 29.7949C16.6439 30.1391 16.2996 30.655 15.5228 30.459L13.5285 29.9514L12.167 33.1551L15.7374 34.063C16.4015 34.2327 17.0527 34.41 17.6923 34.5776L16.557 39.2273L19.2976 39.9247L20.4221 35.3248C21.1704 35.5319 21.8969 35.723 22.6079 35.9038L21.4875 40.4815L24.2308 41.1789L25.3662 36.5389C30.0441 37.4412 33.5622 37.077 35.0411 32.7631C36.2342 29.2887 34.9827 27.2844 32.5212 25.9769C34.3139 25.5538 35.6645 24.3515 36.025 21.8674Z" fill="white"/>
</svg>
