<svg width="22" height="22" viewBox="0 0 22 22" fill="none" xmlns="http://www.w3.org/2000/svg">
<path opacity="0.12" d="M1 10.2C1 9.0799 1 8.51984 1.21799 8.09202C1.40973 7.71569 1.71569 7.40973 2.09202 7.21799C2.51984 7 3.0799 7 4.2 7H11.8C12.9201 7 13.4802 7 13.908 7.21799C14.2843 7.40973 14.5903 7.71569 14.782 8.09202C15 8.51984 15 9.0799 15 10.2V17.8C15 18.9201 15 19.4802 14.782 19.908C14.5903 20.2843 14.2843 20.5903 13.908 20.782C13.4802 21 12.9201 21 11.8 21H4.2C3.07989 21 2.51984 21 2.09202 20.782C1.71569 20.5903 1.40973 20.2843 1.21799 19.908C1 19.4802 1 18.9201 1 17.8V10.2Z" fill="#C3922E"/>
<path d="M7 7V4.2C7 3.0799 7 2.51984 7.21799 2.09202C7.40973 1.71569 7.71569 1.40973 8.09202 1.21799C8.51984 1 9.0799 1 10.2 1H17.8C18.9201 1 19.4802 1 19.908 1.21799C20.2843 1.40973 20.5903 1.71569 20.782 2.09202C21 2.51984 21 3.0799 21 4.2V11.8C21 12.9201 21 13.4802 20.782 13.908C20.5903 14.2843 20.2843 14.5903 19.908 14.782C19.4802 15 18.9201 15 17.8 15H15M4.2 21H11.8C12.9201 21 13.4802 21 13.908 20.782C14.2843 20.5903 14.5903 20.2843 14.782 19.908C15 19.4802 15 18.9201 15 17.8V10.2C15 9.0799 15 8.51984 14.782 8.09202C14.5903 7.71569 14.2843 7.40973 13.908 7.21799C13.4802 7 12.9201 7 11.8 7H4.2C3.0799 7 2.51984 7 2.09202 7.21799C1.71569 7.40973 1.40973 7.71569 1.21799 8.09202C1 8.51984 1 9.0799 1 10.2V17.8C1 18.9201 1 19.4802 1.21799 19.908C1.40973 20.2843 1.71569 20.5903 2.09202 20.782C2.51984 21 3.07989 21 4.2 21Z" stroke="#C3922E" stroke-width="2" stroke-linecap="round" stroke-linejoin="round"/>
</svg>
