<svg width="18" height="18" viewBox="0 0 18 18" fill="none" xmlns="http://www.w3.org/2000/svg">
<path d="M16.3125 3.375H15.75V2.8125C15.75 1.9125 14.9625 1.125 14.0625 1.125H1.6875C0.7875 1.125 0 1.9125 0 2.8125V15.1875C0 16.0875 0.7875 16.875 1.6875 16.875H16.3125C17.2125 16.875 18 16.0875 18 15.1875V5.0625C18 4.1625 17.2125 3.375 16.3125 3.375ZM1.6875 2.25H14.0625C14.4 2.25 14.625 2.475 14.625 2.8125V3.375H1.6875C1.35 3.375 1.125 3.15 1.125 2.8125C1.125 2.475 1.35 2.25 1.6875 2.25ZM16.3125 15.75H1.6875C1.35 15.75 1.125 15.525 1.125 15.1875V4.3875C1.35 4.5 1.4625 4.5 1.6875 4.5H16.3125C16.65 4.5 16.875 4.725 16.875 5.0625V7.875H14.0625C13.1625 7.875 12.375 8.6625 12.375 9.5625V10.6875C12.375 11.5875 13.1625 12.375 14.0625 12.375H16.875V15.1875C16.875 15.525 16.65 15.75 16.3125 15.75ZM16.875 9V11.25H14.0625C13.725 11.25 13.5 11.025 13.5 10.6875V9.5625C13.5 9.225 13.725 9 14.0625 9H16.875Z" fill="#C3922E"/>
<path d="M6.1875 5.625H2.8125C2.475 5.625 2.25 5.85 2.25 6.1875C2.25 6.525 2.475 6.75 2.8125 6.75H6.1875C6.525 6.75 6.75 6.525 6.75 6.1875C6.75 5.85 6.525 5.625 6.1875 5.625Z" fill="#C3922E"/>
</svg>
